<svg height="65.200073mm" viewBox="0 0 1000 231.02388" width="282.22223mm" xmlns="http://www.w3.org/2000/svg"><g transform="matrix(3.0385576 0 0 3.0385576 -1817.98454 -1259.01672)"><path d="m637.17505 414.34683h9.407847v76.030769h-9.407847z"/><path d="m625.06 422.21869h9.407847v60.287025h-9.407847z"/><path d="m612.94501 429.99457h9.407847v44.735275h-9.407847z"/><path d="m-6 33.886719v8.255859h6 .14453125 5.99999995v-8.255859h-5.99999995-.14453125z" transform="translate(604.30511 414.34682)"/><path d="m661.40503 448.23425h202.74797v8.255867h-202.74797z"/><g transform="scale(-1 1)"><path d="m-888.53918 414.34683h9.407847v76.030769h-9.407847z"/><path d="m-900.65424 422.21869h9.407847v60.287025h-9.407847z"/><path d="m-912.76929 429.99457h9.407847v44.735275h-9.407847z"/></g><path d="m310.96094 33.886719v8.255859h6 .14258 6v-8.255859h-6-.14258z" transform="translate(604.30511 414.34682)"/><path d="m-876.42419 414.34683h9.407847v76.030769h-9.407847z" transform="scale(-1 1)"/><path d="m649.29004 414.34683h9.407847v76.030769h-9.407847z"/></g></svg>